#!OML:ASF H:\Terrain\Patient Classification 1\Walking\liu\liu.ASF
:FULLY-SPECIFIED
:DEGREES
283
root 9.22207 16.6607 20.37 4.62839 6.84414 0.756081
lowerback -6.98838 -4.36259 -4.35234
upperback -0.926964 -5.58008 2.84217
thorax 3.64958 -2.86164 4.80622
lowerneck -23.255 -0.662076 -10.129
upperneck 22.0238 0.393314 8.66509
head 10.9057 0.426836 4.94044
rclavicle 2.3761e-016 1.11319e-014
rhumerus -48.6631 0.379861 -76.6415
rradius 16.2039
rwrist 9.26359
rhand -21.861 -22.6576
rfingers 7.12502
rthumb 4.543 -52.5888
lclavicle 2.3761e-016 1.11319e-014
lhumerus -13.6769 -23.839 88.0498
lradius 43.2637
lwrist 13.2164
lhand -18.2375 -29.2419
lfingers 7.12502
lthumb 8.04113 0.585136
rfemur -36.4982 1.94962 24.4358
rtibia 38.8942
rfoot -7.70778 3.70167
rtoes -19.3039
lfemur 17.0803 9.97554 -17.3115
ltibia 22.5762
lfoot 3.18818 -4.87958
ltoes -16.0775
284
root 9.21303 16.6699 20.5784 4.46618 7.02672 0.172924
lowerback -6.72196 -4.3857 -3.85796
upperback -0.980766 -5.66288 3.03176
thorax 3.42626 -2.89234 4.73939
lowerneck -23.5747 -0.715398 -10.1976
upperneck 22.3676 0.313458 8.84988
head 11.1015 0.406364 5.03183
rclavicle 1.4267e-014 -1.19271e-014
rhumerus -48.6247 0.726067 -76.8022
rradius 16.1404
rwrist 8.87654
rhand -21.3527 -24.9591
rfingers 7.12502
rthumb 5.03379 -54.8793
lclavicle 1.4267e-014 -1.19271e-014
lhumerus -14.649 -23.5554 88.5486
lradius 43.6408
lwrist 12.6589
lhand -18.5211 -29.3976
lfingers 7.12502
lthumb 7.76743 0.439779
rfemur -35.7156 1.45738 25.395
rtibia 39.2189
rfoot -7.85029 3.9712
rtoes -16.3791
lfemur 15.1263 10.4185 -16.18
ltibia 27.3925
lfoot 3.84148 -4.9551
ltoes -20.3442
285
root 9.20175 16.6911 20.7826 4.45648 7.3515 -0.185577
lowerback -6.58599 -4.52212 -3.66311
upperback -1.04868 -5.86805 3.20105
thorax 3.30188 -2.99016 4.79629
lowerneck -23.7109 -0.697439 -10.0934
upperneck 22.561 0.317119 8.8115
head 11.1993 0.410542 5.01178
rclavicle -3.63469e-014 -3.26007e-014
rhumerus -48.2285 0.541346 -76.4009
rradius 15.8847
rwrist 9.19803
rhand -20.0667 -27.0882
rfingers 7.12502
rthumb 6.27538 -56.9753
lclavicle -3.63469e-014 -3.26007e-014
lhumerus -15.4069 -23.188 88.9847
lradius 43.7066
lwrist 12.366
lhand -18.7544 -29.4935
lfingers 7.12502
lthumb 7.54222 0.351993
rfemur -34.9749 0.851462 26.0846
rtibia 39.3314
rfoot -8.20749 4.39021
rtoes -14.877
lfemur 13.0364 10.4689 -15.4445
ltibia 31.844
lfoot 4.79698 -4.52575
ltoes -19.786
286
root 9.18898 16.7122 20.9925 4.36216 7.68796 -0.619731
lowerback -6.43173 -4.56414 -3.35069
upperback -1.13914 -5.95282 3.33991
thorax 3.11478 -3.02471 4.77287
lowerneck -23.423 -0.697201 -10.0678
upperneck 22.5914 0.282891 8.79123
head 11.1603 0.389912 4.98973
rclavicle 5.06249e-014 -1.35174e-014
rhumerus -48.0576 0.282331 -76.0825
rradius 15.912
rwrist 9.40133
rhand -19.7356 -24.9523
rfingers 7.12502
rthumb 6.59508 -54.8296
lclavicle 5.06249e-014 -1.35174e-014
lhumerus -16.2761 -23.0871 89.5584
lradius 43.6674
lwrist 12.3282
lhand -18.6805 -29.4466
lfingers 7.12502
lthumb 7.6135 0.396404
rfemur -33.9939 0.228384 26.8396
rtibia 39.2297
rfoot -8.71771 4.95539
rtoes -14.0868
lfemur 11.072 10.2679 -14.7455
ltibia 36.0972
lfoot 6.41601 -3.33872
ltoes -15.5243
287
root 9.1761 16.7338 21.1944 4.21417 7.97947 -1.18283
lowerback -6.29307 -4.47539 -2.91427
upperback -1.06438 -5.8721 3.48546
thorax 3.07787 -2.98144 4.69723
lowerneck -23.6084 -0.881609 -10.0447
upperneck 22.7436 0.0555265 8.68854
head 11.2795 0.275098 4.92246
rclavicle 3.9312e-014 1.59028e-014
rhumerus -47.9592 0.341809 -76.2727
rradius 16.407
rwrist 8.76333
rhand -19.8975 -23.3766
rfingers 7.12502
rthumb 6.43881 -53.2588
lclavicle 3.9312e-014 1.59028e-014
lhumerus -16.7886 -23.5939 90.029
lradius 43.5484
lwrist 12.5529
lhand -18.5091 -29.7379
lfingers 7.12502
lthumb 7.77899 0.098988
rfemur -32.9043 -0.330953 27.7038
rtibia 38.9073
rfoot -9.21667 5.37135
rtoes -12.9032
lfemur 9.08403 9.95251 -14.0327
ltibia 40.1944
lfoot 7.98449 -1.95036
ltoes -12.1955
288
root 9.15516 16.7675 21.3926 4.08757 8.29349 -1.86906
lowerback -6.16776 -4.46858 -2.52899
upperback -0.87687 -5.90295 3.74687
thorax 3.19532 -3.00008 4.75262
lowerneck -24.4883 -1.04995 -9.87367
upperneck 23.1476 -0.100324 8.43074
head 11.6187 0.190923 4.80532
rclavicle -6.11946e-014 1.66979e-014
rhumerus -47.4913 0.82428 -76.7399
rradius 16.8092
rwrist 7.63358
rhand -20.1837 -24.445
rfingers 7.12502
rthumb 6.16245 -54.3354
lclavicle -6.11946e-014 1.66979e-014
lhumerus -17.0443 -24.0286 90.3442
lradius 43.3278
lwrist 12.8384
lhand -18.6236 -30.2653
lfingers 7.12502
lthumb 7.66842 -0.424329
rfemur -31.7709 -0.640206 28.6573
rtibia 38.372
rfoot -9.98987 5.52355
rtoes -13.5824
lfemur 6.89742 9.63138 -13.1844
ltibia 44.1431
lfoot 9.07251 -0.828821
ltoes -13.11
289
root 9.13814 16.8069 21.5892 3.94729 8.62858 -2.60686
lowerback -6.04711 -4.44186 -2.02712
upperback -0.800802 -5.91204 4.02488
thorax 3.18715 -3.00194 4.76722
lowerneck -24.5985 -1.23021 -9.96542
upperneck 23.1192 -0.297538 8.39515
head 11.6517 0.0908341 4.77618
rclavicle 6.79471e-014 -1.59028e-014
rhumerus -47.0768 1.27817 -77.1281
rradius 16.9595
rwrist 6.43451
rhand -21.2222 -24.2754
rfingers 7.12502
rthumb 5.15985 -54.1926
lclavicle 6.79471e-014 -1.59028e-014
lhumerus -17.5938 -24.2056 90.9197
lradius 43.0487
lwrist 12.7233
lhand -18.7162 -30.2835
lfingers 7.12502
lthumb 7.57906 -0.439287
rfemur -30.5586 -0.930371 29.6251
rtibia 37.6622
rfoot -10.6763 5.65269
rtoes -14.4377
lfemur 4.67082 9.3632 -12.2584
ltibia 47.9279
lfoot 9.2254 0.267083
ltoes -16.8927
